<svg width="1500" height="1589" viewBox="0 0 1500 1589" fill="none"
  xmlns="http://www.w3.org/2000/svg">
  <path d="M87 792.805L750 264L1413 792.805V1588H87V792.805Z" fill="#A1A1A1" />
  <path
    d="M1253.72 283.097C1124.74 98.4287 870.004 43.6923 685.819 161.084L362.345 367.322C318.646 394.823 281.165 431.142 252.296 473.958C223.428 516.774 203.807 565.145 194.689 615.978C179.258 701.604 192.821 789.932 233.229 866.979C205.54 908.995 186.655 956.192 177.716 1005.72C168.5 1057.57 169.729 1110.75 181.33 1162.12C192.931 1213.5 214.67 1262.04 245.272 1304.9C374.279 1489.59 629.015 1544.3 813.171 1426.91L1136.65 1220.68C1180.35 1193.18 1217.83 1156.86 1246.7 1114.04C1275.57 1071.23 1295.19 1022.86 1304.3 972.021C1319.73 886.396 1306.18 798.069 1265.79 721.014C1293.47 678.998 1312.35 631.803 1321.28 582.282C1330.5 530.425 1329.27 477.248 1317.67 425.872C1306.07 374.495 1284.33 325.954 1253.72 283.097Z"
    fill="#FF3E00" />
  <path
    d="M654.218 1322.28C603.313 1335.52 549.572 1332.81 500.254 1314.52C450.935 1296.24 408.415 1263.25 378.436 1220.02C360.029 1194.24 346.953 1165.05 339.975 1134.16C332.997 1103.26 332.258 1071.28 337.8 1040.1C339.677 1029.86 342.26 1019.76 345.53 1009.88L351.622 991.295L368.195 1003.47C406.468 1031.6 449.261 1052.99 494.731 1066.72L506.753 1070.37L505.646 1082.37C504.177 1099.44 508.799 1116.49 518.693 1130.48C527.715 1143.5 540.514 1153.44 555.363 1158.96C570.212 1164.47 586.395 1165.29 601.726 1161.31C608.756 1159.43 615.456 1156.48 621.595 1152.58L945.077 946.361C952.993 941.375 959.783 934.795 965.015 927.039C970.248 919.283 973.808 910.522 975.469 901.314C977.129 891.914 976.901 882.278 974.799 872.967C972.696 863.656 968.761 854.857 963.223 847.084C954.195 834.058 941.39 824.117 926.536 818.601C911.683 813.084 895.495 812.259 880.157 816.237C873.137 818.117 866.445 821.06 860.314 824.966L736.876 903.682C716.578 916.593 694.427 926.324 671.19 932.538C620.285 945.778 566.545 943.072 517.228 924.784C467.91 906.497 425.39 873.509 395.412 830.277C377.004 804.505 363.928 775.314 356.95 744.418C349.972 713.522 349.232 681.542 354.776 650.357C360.258 619.789 372.057 590.703 389.419 564.958C406.781 539.214 429.323 517.377 455.603 500.845L779.057 294.614C799.364 281.682 821.531 271.939 844.787 265.723C895.691 252.484 949.431 255.19 998.748 273.477C1048.07 291.764 1090.58 324.751 1120.56 367.983C1138.97 393.756 1152.05 422.947 1159.02 453.843C1166 484.739 1166.74 516.719 1161.2 547.905C1159.31 558.142 1156.73 568.238 1153.47 578.123L1147.38 596.705L1130.81 584.546C1092.54 556.398 1049.75 535 1004.27 521.275L992.247 517.625L993.354 505.622C994.811 488.547 990.19 471.507 980.307 457.51C971.285 444.488 958.486 434.549 943.637 429.035C928.788 423.522 912.605 422.7 897.274 426.681C890.244 428.56 883.544 431.506 877.405 435.416L553.923 641.639C546.009 646.621 539.221 653.199 533.992 660.953C528.763 668.707 525.208 677.467 523.554 686.673C521.884 696.073 522.105 705.711 524.204 715.024C526.303 724.336 530.237 733.137 535.777 740.91C544.805 753.935 557.61 763.877 572.464 769.393C587.317 774.909 603.505 775.734 618.843 771.757C625.871 769.873 632.571 766.928 638.71 763.021L762.133 684.335C782.422 671.407 804.572 661.668 827.812 655.456C878.716 642.216 932.456 644.922 981.774 663.209C1031.09 681.497 1073.61 714.484 1103.59 757.717C1122 783.489 1135.07 812.68 1142.05 843.576C1149.03 874.472 1149.77 906.451 1144.23 937.637C1138.74 968.206 1126.94 997.294 1109.58 1023.04C1092.22 1048.79 1069.68 1070.63 1043.4 1087.17L719.943 1293.39C699.636 1306.32 677.474 1316.06 654.218 1322.28Z"
    fill="white" />
  <path d="M750 1589H87V794L750 1224.63L1413 794V1589H750Z" fill="#D4D4D4" />
  <path d="M750 1589H87V1483.07L750 1013L1412.34 1483.07L1413 1589H750Z" fill="#E5E5E5" />
</svg>